<svg xmlns="http://www.w3.org/2000/svg" viewBox="0 0 32 32">
  <defs>
    <linearGradient id="grad" x1="0%" y1="0%" x2="100%" y2="100%">
      <stop offset="0%" style="stop-color:#FF3C00;stop-opacity:1" />
      <stop offset="100%" style="stop-color:#E53600;stop-opacity:1" />
    </linearGradient>
  </defs>
  <circle cx="16" cy="16" r="14" fill="url(#grad)" stroke="#191919" stroke-width="2"/>
  <path d="M8 12c0-2.2 1.8-4 4-4s4 1.8 4 4-1.8 4-4 4-4-1.8-4-4zm8 0c0-2.2 1.8-4 4-4s4 1.8 4 4-1.8 4-4 4-4-1.8-4-4z" fill="white"/>
  <path d="M16 20c-3.3 0-6 2.7-6 6h12c0-3.3-2.7-6-6-6z" fill="white"/>
</svg>
